<?xml version="1.0" encoding="utf-8"?>
<!-- Generator: Adobe Illustrator 24.3.0, SVG Export Plug-In . SVG Version: 6.00 Build 0)  -->
<svg version="1.1" id="Calque_1" xmlns="http://www.w3.org/2000/svg" xmlns:xlink="http://www.w3.org/1999/xlink" x="0px" y="0px"
	 viewBox="0 0 576 512" style="enable-background:new 0 0 576 512;" xml:space="preserve">
<path d="M289,32c-77.4,0-139.4,36.8-184.6,80.6C59.5,156,29.6,208,15.4,243.7c-3.2,7.9-3.2,16.7,0,24.6
	c14.2,35.7,44.2,87.7,89,131.1C149.5,443.2,211.5,480,289,480s139.4-36.8,184.6-80.6c44.8-43.5,74.8-95.4,89.1-131.1
	c3.2-7.9,3.2-16.7,0-24.6c-14.3-35.7-44.3-87.7-89.1-131.1C428.4,68.8,366.4,32,289,32z M151,256c0-79.5,61.8-144,138-144
	s138,64.5,138,144s-61.8,144-138,144S151,335.5,151,256z M289,192c0,35.3-27.5,64-61.3,64c-6.8,0-13.3-1.2-19.5-3.3
	c-5.3-1.8-11.4,1.6-11.2,7.4c0.3,6.9,1.2,13.8,3.1,20.7c13.1,51.2,63.6,81.6,112.7,67.9s78.2-66.4,65.1-117.6
	c-10.6-41.5-45.8-69.4-84.9-71.1c-5.6-0.2-8.8,6.1-7.1,11.7C287.8,178.1,289,184.9,289,192L289,192z"/>
</svg>
