<?xml version="1.0" encoding="utf-8"?>
<!-- Generator: Adobe Illustrator 24.3.0, SVG Export Plug-In . SVG Version: 6.00 Build 0)  -->
<svg version="1.1" id="Calque_1" xmlns="http://www.w3.org/2000/svg" xmlns:xlink="http://www.w3.org/1999/xlink" x="0px" y="0px"
	 viewBox="0 0 576 512" style="enable-background:new 0 0 576 512;" xml:space="preserve">
<style type="text/css">
	.st0{stroke:#1D1D1B;stroke-width:1.0726;stroke-miterlimit:10;}
	.st1{stroke:#1D1D1B;stroke-width:0.4193;stroke-miterlimit:10;}
</style>
<g>
	<path class="st0" d="M287.7,32C207,32,142.3,68.8,95.3,112.6C48.5,156,17.3,208,2.5,243.7c-3.3,7.9-3.3,16.7,0,24.6
		C17.3,304,48.5,356,95.3,399.4c47,43.8,111.7,80.6,192.4,80.6s145.3-36.8,192.4-80.6c46.7-43.5,78-95.4,92.9-131.1
		c3.3-7.9,3.3-16.7,0-24.6c-14.9-35.7-46.2-87.7-92.9-131.1C433,68.8,368.4,32,287.7,32z M143.8,256c0-79.5,64.4-144,143.8-144
		s143.8,64.5,143.8,144s-64.4,144-143.8,144S143.8,335.5,143.8,256z M287.7,192c0,35.3-28.7,64-63.9,64c-7.1,0-13.9-1.2-20.3-3.3
		c-5.5-1.8-11.9,1.6-11.7,7.4c0.3,6.9,1.3,13.8,3.2,20.7c13.7,51.2,66.3,81.6,117.5,67.9s81.5-66.4,67.8-117.6
		c-11.1-41.5-47.7-69.4-88.5-71.1c-5.8-0.2-9.2,6.1-7.4,11.7C286.5,178.1,287.7,184.9,287.7,192L287.7,192z"/>
	<path class="st1" d="M510.9,497.6l-4.8,3.8c-15.5,12.5-38.9,10.6-52-4.3L74.6,64.2c-13.1-14.9-11-37.4,4.5-49.9l4.8-3.8
		c15.5-12.5,38.9-10.6,52,4.3l379.6,432.9C528.5,462.7,526.4,485.1,510.9,497.6z"/>
</g>
</svg>
